<mxfile host="app.diagrams.net" agent="Mozilla/5.0 (Windows NT 10.0; Win64; x64; rv:133.0) Gecko/20100101 Firefox/133.0" version="25.0.3">
  <diagram name="Страница — 1" id="L65OM0lezE8zGUWGf4Wk">
    <mxGraphModel dx="1500" dy="1966" grid="1" gridSize="10" guides="1" tooltips="1" connect="1" arrows="1" fold="1" page="1" pageScale="1" pageWidth="827" pageHeight="1169" math="0" shadow="0">
      <root>
        <mxCell id="0" />
        <mxCell id="1" parent="0" />
        <mxCell id="27PRny8rUoxVRYOgI7TN-1" value="&lt;li&gt;&lt;strong&gt;ID Клиента&lt;/strong&gt; ( число)&lt;/li&gt;&lt;li&gt;ФИО (текст)&lt;/li&gt;&lt;li&gt;Телефон (текст)&lt;/li&gt;&lt;li&gt;Адрес (текст)&lt;/li&gt;" style="rounded=0;whiteSpace=wrap;html=1;" parent="1" vertex="1">
          <mxGeometry x="110" y="80" width="90" height="160" as="geometry" />
        </mxCell>
        <mxCell id="OAWFOwv-smGshcHXw7bY-12" style="edgeStyle=orthogonalEdgeStyle;rounded=0;orthogonalLoop=1;jettySize=auto;html=1;exitX=0;exitY=0.25;exitDx=0;exitDy=0;endArrow=none;endFill=0;entryX=-0.028;entryY=0.604;entryDx=0;entryDy=0;entryPerimeter=0;startArrow=ERmany;startFill=0;" parent="1" source="27PRny8rUoxVRYOgI7TN-2" target="27PRny8rUoxVRYOgI7TN-22" edge="1">
          <mxGeometry relative="1" as="geometry">
            <mxPoint x="380" y="-74" as="targetPoint" />
            <Array as="points">
              <mxPoint x="60" y="120" />
              <mxPoint x="60" y="-40" />
              <mxPoint x="320" y="-40" />
              <mxPoint x="320" y="-163" />
            </Array>
          </mxGeometry>
        </mxCell>
        <mxCell id="27PRny8rUoxVRYOgI7TN-2" value="&lt;div&gt;PK&lt;/div&gt;&lt;div&gt;&lt;br&gt;&lt;/div&gt;&lt;div&gt;&lt;br&gt;&lt;/div&gt;&lt;div&gt;&lt;br&gt;&lt;/div&gt;&lt;div&gt;&lt;br&gt;&lt;/div&gt;" style="rounded=0;whiteSpace=wrap;html=1;" parent="1" vertex="1">
          <mxGeometry x="80" y="80" width="30" height="160" as="geometry" />
        </mxCell>
        <mxCell id="27PRny8rUoxVRYOgI7TN-3" value="Клиент" style="rounded=0;whiteSpace=wrap;html=1;" parent="1" vertex="1">
          <mxGeometry x="80" y="80" width="120" height="30" as="geometry" />
        </mxCell>
        <mxCell id="27PRny8rUoxVRYOgI7TN-6" value="&lt;div&gt;&lt;br&gt;&lt;/div&gt;&lt;div&gt;PK&lt;/div&gt;&lt;div&gt;&lt;br&gt;&lt;/div&gt;&lt;div&gt;&lt;br&gt;&lt;/div&gt;&lt;div&gt;&lt;br&gt;&lt;/div&gt;&lt;div&gt;&lt;br&gt;&lt;/div&gt;&lt;div&gt;&lt;br&gt;&lt;/div&gt;&lt;div&gt;FK&lt;br&gt;&lt;/div&gt;&lt;div&gt;&lt;br&gt;&lt;/div&gt;&lt;div&gt;&lt;br&gt;&lt;/div&gt;" style="rounded=0;whiteSpace=wrap;html=1;" parent="1" vertex="1">
          <mxGeometry x="80" y="250" width="30" height="240" as="geometry" />
        </mxCell>
        <mxCell id="27PRny8rUoxVRYOgI7TN-7" value="Фотографии" style="rounded=0;whiteSpace=wrap;html=1;" parent="1" vertex="1">
          <mxGeometry x="80" y="250" width="120" height="30" as="geometry" />
        </mxCell>
        <mxCell id="27PRny8rUoxVRYOgI7TN-11" value="ID Услуги (число)&lt;br&gt;Название услуги (текст)&lt;br&gt;Описание (текст)&lt;br&gt;&lt;div&gt;Стоимость (число)&lt;/div&gt;&lt;div&gt;&lt;br&gt;&lt;/div&gt;&lt;div&gt;ID Фотографии (число)&lt;br&gt;&lt;/div&gt;&lt;div&gt;&lt;br&gt;&lt;/div&gt;" style="rounded=0;whiteSpace=wrap;html=1;" parent="1" vertex="1">
          <mxGeometry x="690" y="-120" width="130" height="210" as="geometry" />
        </mxCell>
        <mxCell id="OAWFOwv-smGshcHXw7bY-11" style="edgeStyle=orthogonalEdgeStyle;rounded=0;orthogonalLoop=1;jettySize=auto;html=1;exitX=0;exitY=0.25;exitDx=0;exitDy=0;entryX=1;entryY=0.75;entryDx=0;entryDy=0;endArrow=none;endFill=0;startArrow=ERmany;startFill=0;" parent="1" source="27PRny8rUoxVRYOgI7TN-12" target="27PRny8rUoxVRYOgI7TN-21" edge="1">
          <mxGeometry relative="1" as="geometry">
            <mxPoint x="570" y="-70.00000000000023" as="targetPoint" />
            <Array as="points">
              <mxPoint x="610" y="-67" />
              <mxPoint x="610" y="-130" />
              <mxPoint x="546" y="-130" />
            </Array>
          </mxGeometry>
        </mxCell>
        <mxCell id="27PRny8rUoxVRYOgI7TN-12" value="&lt;div&gt;PK&lt;/div&gt;&lt;div&gt;&lt;br&gt;&lt;/div&gt;&lt;div&gt;&lt;br&gt;&lt;/div&gt;&lt;div&gt;&lt;br&gt;&lt;/div&gt;&lt;div&gt;&lt;br&gt;&lt;/div&gt;&lt;div&gt;&lt;br&gt;&lt;/div&gt;&lt;div&gt;FK&lt;br&gt;&lt;/div&gt;&lt;div&gt;&lt;br&gt;&lt;/div&gt;" style="rounded=0;whiteSpace=wrap;html=1;" parent="1" vertex="1">
          <mxGeometry x="660" y="-120" width="30" height="210" as="geometry" />
        </mxCell>
        <mxCell id="27PRny8rUoxVRYOgI7TN-13" value="Услуга" style="rounded=0;whiteSpace=wrap;html=1;" parent="1" vertex="1">
          <mxGeometry x="660" y="-150" width="160" height="30" as="geometry" />
        </mxCell>
        <mxCell id="OAWFOwv-smGshcHXw7bY-10" style="edgeStyle=orthogonalEdgeStyle;rounded=0;orthogonalLoop=1;jettySize=auto;html=1;entryX=1.006;entryY=0.829;entryDx=0;entryDy=0;endArrow=none;endFill=0;exitX=1;exitY=0.25;exitDx=0;exitDy=0;entryPerimeter=0;startArrow=ERmany;startFill=0;" parent="1" source="27PRny8rUoxVRYOgI7TN-14" target="27PRny8rUoxVRYOgI7TN-21" edge="1">
          <mxGeometry relative="1" as="geometry">
            <mxPoint x="400" y="-460" as="sourcePoint" />
            <mxPoint x="540.8820000000001" y="-68.53999999999996" as="targetPoint" />
            <Array as="points">
              <mxPoint x="560" y="-457" />
              <mxPoint x="560" y="-116" />
            </Array>
          </mxGeometry>
        </mxCell>
        <mxCell id="27PRny8rUoxVRYOgI7TN-14" value="ID Фотографа (число)&lt;br&gt;ФИО (текст)&lt;br&gt;Специализация (текст)&lt;br&gt;Контакты (текст)" style="rounded=0;whiteSpace=wrap;html=1;" parent="1" vertex="1">
          <mxGeometry x="300" y="-490" width="90" height="130" as="geometry" />
        </mxCell>
        <mxCell id="27PRny8rUoxVRYOgI7TN-15" value="&lt;div&gt;PK&lt;/div&gt;&lt;div&gt;&lt;br&gt;&lt;/div&gt;&lt;div&gt;&lt;br&gt;&lt;/div&gt;&lt;div&gt;&lt;br&gt;&lt;/div&gt;&lt;div&gt;&lt;br&gt;&lt;/div&gt;" style="rounded=0;whiteSpace=wrap;html=1;" parent="1" vertex="1">
          <mxGeometry x="270" y="-520" width="30" height="160" as="geometry" />
        </mxCell>
        <mxCell id="27PRny8rUoxVRYOgI7TN-16" value="Фотограф" style="rounded=0;whiteSpace=wrap;html=1;" parent="1" vertex="1">
          <mxGeometry x="270" y="-520" width="120" height="30" as="geometry" />
        </mxCell>
        <mxCell id="27PRny8rUoxVRYOgI7TN-17" value="&lt;font style=&quot;font-size: 12px;&quot;&gt;ID Студии (число)&lt;br&gt;Название (текст)&lt;br&gt;Адрес (текст)&lt;br&gt;&lt;/font&gt;&lt;div&gt;&lt;font style=&quot;font-size: 12px;&quot;&gt;Емкость (число)&lt;/font&gt;&lt;/div&gt;&lt;div&gt;&lt;font style=&quot;font-size: 12px;&quot;&gt;Стоимость аренды в час (число)&lt;br&gt;&lt;/font&gt;&lt;/div&gt;&lt;div style=&quot;&quot;&gt;&lt;font style=&quot;font-size: 12px;&quot;&gt;&lt;br&gt;&lt;/font&gt;&lt;/div&gt;" style="rounded=0;whiteSpace=wrap;html=1;" parent="1" vertex="1">
          <mxGeometry x="50" y="-270" width="90" height="190" as="geometry" />
        </mxCell>
        <mxCell id="27PRny8rUoxVRYOgI7TN-18" value="&lt;div style=&quot;font-size: 13px;&quot;&gt;&lt;font style=&quot;font-size: 13px;&quot;&gt;&lt;br&gt;&lt;/font&gt;&lt;/div&gt;&lt;div style=&quot;font-size: 13px;&quot;&gt;&lt;font style=&quot;font-size: 13px;&quot;&gt;&lt;br&gt;&lt;/font&gt;&lt;/div&gt;&lt;div style=&quot;font-size: 13px;&quot;&gt;&lt;font style=&quot;font-size: 13px;&quot;&gt;PK&lt;/font&gt;&lt;/div&gt;&lt;div style=&quot;font-size: 13px;&quot;&gt;&lt;font style=&quot;font-size: 13px;&quot;&gt;&lt;br&gt;&lt;/font&gt;&lt;/div&gt;&lt;div style=&quot;font-size: 13px;&quot;&gt;&lt;font style=&quot;font-size: 13px;&quot;&gt;&lt;br&gt;&lt;/font&gt;&lt;/div&gt;&lt;div style=&quot;font-size: 13px;&quot;&gt;&lt;font style=&quot;font-size: 13px;&quot;&gt;&lt;br&gt;&lt;/font&gt;&lt;/div&gt;&lt;div style=&quot;font-size: 13px;&quot;&gt;&lt;font style=&quot;font-size: 13px;&quot;&gt;&lt;br&gt;&lt;/font&gt;&lt;/div&gt;&lt;div style=&quot;font-size: 13px;&quot;&gt;&lt;font style=&quot;font-size: 13px;&quot;&gt;&lt;br&gt;&lt;/font&gt;&lt;/div&gt;&lt;div style=&quot;font-size: 13px;&quot;&gt;&lt;font style=&quot;font-size: 13px;&quot;&gt;&lt;br&gt;&lt;/font&gt;&lt;/div&gt;&lt;div style=&quot;font-size: 13px;&quot;&gt;&lt;font style=&quot;font-size: 13px;&quot;&gt;&lt;br&gt;&lt;br&gt;&lt;br&gt;&lt;br&gt;&lt;br&gt;&lt;/font&gt;&lt;/div&gt;" style="rounded=0;whiteSpace=wrap;html=1;" parent="1" vertex="1">
          <mxGeometry x="20" y="-270" width="30" height="190" as="geometry" />
        </mxCell>
        <mxCell id="27PRny8rUoxVRYOgI7TN-19" value="Фотостудия" style="rounded=0;whiteSpace=wrap;html=1;" parent="1" vertex="1">
          <mxGeometry x="20" y="-300" width="120" height="30" as="geometry" />
        </mxCell>
        <mxCell id="27PRny8rUoxVRYOgI7TN-21" value="ID Бронирования (число)&lt;br&gt;Дата Бронирования (дата)&lt;br&gt;&lt;div&gt;Время начала (время)&lt;/div&gt;&lt;div&gt;Время окончания (время)&lt;br&gt;&lt;/div&gt;&lt;div&gt;ID Клиента (число)&lt;/div&gt;&lt;div&gt;ID Студии (число)&lt;br&gt;&lt;/div&gt;ID Услуги (число)&lt;br&gt;ID Фотографа(число) – связь с мастером" style="rounded=0;whiteSpace=wrap;html=1;" parent="1" vertex="1">
          <mxGeometry x="420" y="-290" width="126" height="210" as="geometry" />
        </mxCell>
        <mxCell id="OAWFOwv-smGshcHXw7bY-9" style="edgeStyle=orthogonalEdgeStyle;rounded=0;orthogonalLoop=1;jettySize=auto;html=1;exitX=0.019;exitY=0.093;exitDx=0;exitDy=0;endArrow=none;endFill=0;entryX=1.014;entryY=0.59;entryDx=0;entryDy=0;entryPerimeter=0;startArrow=ERmany;startFill=0;exitPerimeter=0;" parent="1" source="27PRny8rUoxVRYOgI7TN-22" target="AKFzgqZSrFVs2XkJylJG-1" edge="1">
          <mxGeometry relative="1" as="geometry">
            <Array as="points">
              <mxPoint x="370" y="-270" />
              <mxPoint x="370" y="404" />
            </Array>
            <mxPoint x="390" y="120" as="targetPoint" />
          </mxGeometry>
        </mxCell>
        <mxCell id="27PRny8rUoxVRYOgI7TN-22" value="&lt;div&gt;PK&lt;/div&gt;&lt;div&gt;&lt;br&gt;&lt;/div&gt;&lt;div&gt;&lt;br&gt;&lt;/div&gt;&lt;div&gt;&lt;br&gt;&lt;/div&gt;&lt;div&gt;&lt;br&gt;&lt;/div&gt;&lt;div&gt;&lt;br&gt;&lt;/div&gt;&lt;div&gt;&lt;br&gt;&lt;/div&gt;&lt;div&gt;&lt;br&gt;&lt;/div&gt;&lt;div&gt;FK&lt;/div&gt;&lt;div&gt;FK&lt;/div&gt;&lt;div&gt;FK&lt;/div&gt;&lt;div&gt;FK&lt;/div&gt;&lt;div&gt;&lt;br&gt;&lt;/div&gt;" style="rounded=0;whiteSpace=wrap;html=1;" parent="1" vertex="1">
          <mxGeometry x="390" y="-290" width="30" height="210" as="geometry" />
        </mxCell>
        <mxCell id="27PRny8rUoxVRYOgI7TN-23" value="Бронирование" style="rounded=0;whiteSpace=wrap;html=1;" parent="1" vertex="1">
          <mxGeometry x="390" y="-320" width="156" height="30" as="geometry" />
        </mxCell>
        <mxCell id="OAWFOwv-smGshcHXw7bY-1" style="edgeStyle=orthogonalEdgeStyle;rounded=0;orthogonalLoop=1;jettySize=auto;html=1;endArrow=none;endFill=0;entryX=0.007;entryY=0.668;entryDx=0;entryDy=0;entryPerimeter=0;startArrow=ERmany;startFill=0;exitX=0.989;exitY=0.164;exitDx=0;exitDy=0;exitPerimeter=0;" parent="1" target="27PRny8rUoxVRYOgI7TN-22" edge="1" source="27PRny8rUoxVRYOgI7TN-17">
          <mxGeometry relative="1" as="geometry">
            <mxPoint x="380" y="-60" as="targetPoint" />
            <Array as="points">
              <mxPoint x="300" y="-239" />
              <mxPoint x="300" y="-230" />
              <mxPoint x="350" y="-230" />
              <mxPoint x="350" y="-150" />
            </Array>
            <mxPoint x="300" y="-230" as="sourcePoint" />
          </mxGeometry>
        </mxCell>
        <mxCell id="fQ-BYjtnV7EGx9lp_706-1" style="edgeStyle=orthogonalEdgeStyle;rounded=0;orthogonalLoop=1;jettySize=auto;html=1;exitX=1;exitY=0.193;exitDx=0;exitDy=0;entryX=-0.019;entryY=0.68;entryDx=0;entryDy=0;entryPerimeter=0;endArrow=none;endFill=0;startArrow=ERmany;startFill=0;exitPerimeter=0;" parent="1" source="AKFzgqZSrFVs2XkJylJG-1" target="27PRny8rUoxVRYOgI7TN-12" edge="1">
          <mxGeometry relative="1" as="geometry">
            <mxPoint x="580" y="30" as="targetPoint" />
            <Array as="points">
              <mxPoint x="590" y="321" />
              <mxPoint x="590" y="-57" />
              <mxPoint x="659" y="-57" />
            </Array>
          </mxGeometry>
        </mxCell>
        <mxCell id="AKFzgqZSrFVs2XkJylJG-1" value="&lt;code&gt;ID фотографии (число)&lt;/code&gt; &lt;br&gt;&lt;div&gt;&lt;code&gt;Файл фотографии (текст)&lt;br&gt;&lt;/code&gt;&lt;/div&gt;&lt;code&gt;ID бронирования (число)&lt;/code&gt; &lt;br&gt;&lt;code&gt;Дата создания (дата)&lt;/code&gt; " style="rounded=0;whiteSpace=wrap;html=1;align=center;" parent="1" vertex="1">
          <mxGeometry x="110" y="280" width="90" height="210" as="geometry" />
        </mxCell>
      </root>
    </mxGraphModel>
  </diagram>
</mxfile>
